<?xml version="1.0" encoding="us-ascii" standalone="no"?><svg xmlns="http://www.w3.org/2000/svg" xmlns:xlink="http://www.w3.org/1999/xlink" contentStyleType="text/css" height="253px" preserveAspectRatio="none" style="width:1025px;height:253px;background:#FFFFFF;" version="1.1" viewBox="0 0 1025 253" width="1025px" zoomAndPan="magnify"><defs/><g><g id="cluster_##2"><rect fill="#F4EDED" height="240" rx="2.5" ry="2.5" style="stroke:#181818;stroke-width:1.0;" width="1012" x="7" y="7"/></g><!--class Property--><g id="elem_Property"><rect codeLine="5" fill="#F1F1F1" height="73.7969" id="Property" rx="2.5" ry="2.5" style="stroke:#181818;stroke-width:0.5;" width="86" x="470" y="23"/><ellipse cx="485" cy="51.8984" fill="#ADD1B2" rx="11" ry="11" style="stroke:#181818;stroke-width:1.0;"/><path d="M487.7656,47.7734 Q487.9219,47.5547 488.1094,47.4453 Q488.2969,47.3359 488.5156,47.3359 Q488.8906,47.3359 489.125,47.5938 Q489.3594,47.8516 489.3594,48.4609 L489.3594,49.9141 Q489.3594,50.5234 489.125,50.7891 Q488.8906,51.0547 488.5156,51.0547 Q488.1719,51.0547 487.9688,50.8516 Q487.7656,50.6641 487.6563,50.1484 Q487.6094,49.7891 487.4219,49.6016 Q487.0938,49.2266 486.4844,49.0078 Q485.875,48.7891 485.25,48.7891 Q484.4844,48.7891 483.8516,49.1172 Q483.2188,49.4453 482.7266,50.1953 Q482.2344,50.9453 482.2344,51.9766 L482.2344,53.0703 Q482.2344,54.3047 483.125,55.125 Q484.0156,55.9453 485.6094,55.9453 Q486.5469,55.9453 487.2031,55.6953 Q487.5938,55.5391 488.0156,55.1016 Q488.2813,54.8359 488.4297,54.7578 Q488.5781,54.6797 488.7813,54.6797 Q489.1094,54.6797 489.3672,54.9375 Q489.625,55.1953 489.625,55.5391 Q489.625,55.8828 489.2813,56.2891 Q488.7813,56.8672 487.9844,57.1953 Q486.9063,57.6484 485.6094,57.6484 Q484.0938,57.6484 482.8906,57.0234 Q481.9063,56.5234 481.2188,55.4531 Q480.5313,54.3828 480.5313,53.1016 L480.5313,51.9453 Q480.5313,50.6172 481.1484,49.4688 Q481.7656,48.3203 482.8594,47.7031 Q483.9531,47.0859 485.1875,47.0859 Q485.9219,47.0859 486.5703,47.25 Q487.2188,47.4141 487.7656,47.7734 Z " fill="#000000"/><text fill="#000000" font-family="sans-serif" font-size="12" font-style="italic" lengthAdjust="spacing" textLength="40" x="506" y="40.457">&#171;Root&#187;</text><text fill="#000000" font-family="sans-serif" font-size="12" font-style="italic" lengthAdjust="spacing" textLength="44" x="504" y="55.5508">&#171;Entity&#187;</text><text fill="#000000" font-family="sans-serif" font-size="14" lengthAdjust="spacing" textLength="54" x="499" y="72.7207">Property</text><line style="stroke:#181818;stroke-width:0.5;" x1="471" x2="555" y1="80.7969" y2="80.7969"/><line style="stroke:#181818;stroke-width:0.5;" x1="471" x2="555" y1="88.7969" y2="88.7969"/></g><!--class Price--><g id="elem_Price"><rect codeLine="6" fill="#F1F1F1" height="58.7031" id="Price" rx="2.5" ry="2.5" style="stroke:#181818;stroke-width:0.5;" width="110" x="23" y="164.5"/><ellipse cx="38" cy="185.8516" fill="#A4C2E5" rx="11" ry="11" style="stroke:#181818;stroke-width:1.0;"/><path d="M38.6094,188.7891 L40.4531,185.0234 Q39.7656,185.0234 39.5781,184.8984 Q39.1563,184.6484 39.1563,184.1641 Q39.1563,183.7891 39.4219,183.5547 Q39.6875,183.3203 40.2969,183.3203 L42.625,183.3203 Q43.25,183.3203 43.5078,183.5547 Q43.7656,183.7891 43.7656,184.1641 Q43.7656,184.5391 43.5078,184.7813 Q43.25,185.0234 42.625,185.0234 L42.3438,185.0234 L39.5,190.8516 L37.7188,190.8516 L34.875,185.0234 L34.6406,185.0234 Q34.0156,185.0234 33.7578,184.7813 Q33.5,184.5391 33.5,184.1641 Q33.5,183.7891 33.7578,183.5547 Q34.0156,183.3203 34.6406,183.3203 L36.9219,183.3203 Q37.5313,183.3203 37.7891,183.5547 Q38.0469,183.7891 38.0469,184.1641 Q38.0469,184.6484 37.6563,184.8984 Q37.4531,185.0234 36.7656,185.0234 L38.6094,188.7891 Z " fill="#000000"/><text fill="#000000" font-family="sans-serif" font-size="12" font-style="italic" lengthAdjust="spacing" textLength="82" x="50" y="181.957">&#171;ValueObject&#187;</text><text fill="#000000" font-family="sans-serif" font-size="14" lengthAdjust="spacing" textLength="32" x="75" y="199.127">Price</text><line style="stroke:#181818;stroke-width:0.5;" x1="24" x2="132" y1="207.2031" y2="207.2031"/><line style="stroke:#181818;stroke-width:0.5;" x1="24" x2="132" y1="215.2031" y2="215.2031"/></g><!--class Latitude--><g id="elem_Latitude"><rect codeLine="7" fill="#F1F1F1" height="58.7031" id="Latitude" rx="2.5" ry="2.5" style="stroke:#181818;stroke-width:0.5;" width="110" x="168" y="164.5"/><ellipse cx="183" cy="185.8516" fill="#A4C2E5" rx="11" ry="11" style="stroke:#181818;stroke-width:1.0;"/><path d="M183.6094,188.7891 L185.4531,185.0234 Q184.7656,185.0234 184.5781,184.8984 Q184.1563,184.6484 184.1563,184.1641 Q184.1563,183.7891 184.4219,183.5547 Q184.6875,183.3203 185.2969,183.3203 L187.625,183.3203 Q188.25,183.3203 188.5078,183.5547 Q188.7656,183.7891 188.7656,184.1641 Q188.7656,184.5391 188.5078,184.7813 Q188.25,185.0234 187.625,185.0234 L187.3438,185.0234 L184.5,190.8516 L182.7188,190.8516 L179.875,185.0234 L179.6406,185.0234 Q179.0156,185.0234 178.7578,184.7813 Q178.5,184.5391 178.5,184.1641 Q178.5,183.7891 178.7578,183.5547 Q179.0156,183.3203 179.6406,183.3203 L181.9219,183.3203 Q182.5313,183.3203 182.7891,183.5547 Q183.0469,183.7891 183.0469,184.1641 Q183.0469,184.6484 182.6563,184.8984 Q182.4531,185.0234 181.7656,185.0234 L183.6094,188.7891 Z " fill="#000000"/><text fill="#000000" font-family="sans-serif" font-size="12" font-style="italic" lengthAdjust="spacing" textLength="82" x="195" y="181.957">&#171;ValueObject&#187;</text><text fill="#000000" font-family="sans-serif" font-size="14" lengthAdjust="spacing" textLength="51" x="210.5" y="199.127">Latitude</text><line style="stroke:#181818;stroke-width:0.5;" x1="169" x2="277" y1="207.2031" y2="207.2031"/><line style="stroke:#181818;stroke-width:0.5;" x1="169" x2="277" y1="215.2031" y2="215.2031"/></g><!--class Longitude--><g id="elem_Longitude"><rect codeLine="8" fill="#F1F1F1" height="58.7031" id="Longitude" rx="2.5" ry="2.5" style="stroke:#181818;stroke-width:0.5;" width="110" x="313" y="164.5"/><ellipse cx="328" cy="185.8516" fill="#A4C2E5" rx="11" ry="11" style="stroke:#181818;stroke-width:1.0;"/><path d="M328.6094,188.7891 L330.4531,185.0234 Q329.7656,185.0234 329.5781,184.8984 Q329.1563,184.6484 329.1563,184.1641 Q329.1563,183.7891 329.4219,183.5547 Q329.6875,183.3203 330.2969,183.3203 L332.625,183.3203 Q333.25,183.3203 333.5078,183.5547 Q333.7656,183.7891 333.7656,184.1641 Q333.7656,184.5391 333.5078,184.7813 Q333.25,185.0234 332.625,185.0234 L332.3438,185.0234 L329.5,190.8516 L327.7188,190.8516 L324.875,185.0234 L324.6406,185.0234 Q324.0156,185.0234 323.7578,184.7813 Q323.5,184.5391 323.5,184.1641 Q323.5,183.7891 323.7578,183.5547 Q324.0156,183.3203 324.6406,183.3203 L326.9219,183.3203 Q327.5313,183.3203 327.7891,183.5547 Q328.0469,183.7891 328.0469,184.1641 Q328.0469,184.6484 327.6563,184.8984 Q327.4531,185.0234 326.7656,185.0234 L328.6094,188.7891 Z " fill="#000000"/><text fill="#000000" font-family="sans-serif" font-size="12" font-style="italic" lengthAdjust="spacing" textLength="82" x="340" y="181.957">&#171;ValueObject&#187;</text><text fill="#000000" font-family="sans-serif" font-size="14" lengthAdjust="spacing" textLength="63" x="349.5" y="199.127">Longitude</text><line style="stroke:#181818;stroke-width:0.5;" x1="314" x2="422" y1="207.2031" y2="207.2031"/><line style="stroke:#181818;stroke-width:0.5;" x1="314" x2="422" y1="215.2031" y2="215.2031"/></g><!--class Id--><g id="elem_Id"><rect codeLine="9" fill="#F1F1F1" height="73.7969" id="Id" rx="2.5" ry="2.5" style="stroke:#181818;stroke-width:0.5;" width="110" x="458" y="157"/><ellipse cx="473" cy="185.8984" fill="#FFA500" rx="11" ry="11" style="stroke:#181818;stroke-width:1.0;"/><path d="M473.6094,188.8359 L475.4531,185.0703 Q474.7656,185.0703 474.5781,184.9453 Q474.1563,184.6953 474.1563,184.2109 Q474.1563,183.8359 474.4219,183.6016 Q474.6875,183.3672 475.2969,183.3672 L477.625,183.3672 Q478.25,183.3672 478.5078,183.6016 Q478.7656,183.8359 478.7656,184.2109 Q478.7656,184.5859 478.5078,184.8281 Q478.25,185.0703 477.625,185.0703 L477.3438,185.0703 L474.5,190.8984 L472.7188,190.8984 L469.875,185.0703 L469.6406,185.0703 Q469.0156,185.0703 468.7578,184.8281 Q468.5,184.5859 468.5,184.2109 Q468.5,183.8359 468.7578,183.6016 Q469.0156,183.3672 469.6406,183.3672 L471.9219,183.3672 Q472.5313,183.3672 472.7891,183.6016 Q473.0469,183.8359 473.0469,184.2109 Q473.0469,184.6953 472.6563,184.9453 Q472.4531,185.0703 471.7656,185.0703 L473.6094,188.8359 Z " fill="#000000"/><text fill="#000000" font-family="sans-serif" font-size="12" font-style="italic" lengthAdjust="spacing" textLength="82" x="485" y="174.457">&#171;ValueObject&#187;</text><text fill="#000000" font-family="sans-serif" font-size="12" font-style="italic" lengthAdjust="spacing" textLength="52" x="500" y="189.5508">&#171;unique&#187;</text><text fill="#000000" font-family="sans-serif" font-size="14" lengthAdjust="spacing" textLength="11" x="520.5" y="206.7207">Id</text><line style="stroke:#181818;stroke-width:0.5;" x1="459" x2="567" y1="214.7969" y2="214.7969"/><line style="stroke:#181818;stroke-width:0.5;" x1="459" x2="567" y1="222.7969" y2="222.7969"/></g><!--class District--><g id="elem_District"><rect codeLine="10" fill="#F1F1F1" height="58.7031" id="District" rx="2.5" ry="2.5" style="stroke:#181818;stroke-width:0.5;" width="110" x="603" y="164.5"/><ellipse cx="618" cy="185.8516" fill="#A4C2E5" rx="11" ry="11" style="stroke:#181818;stroke-width:1.0;"/><path d="M618.6094,188.7891 L620.4531,185.0234 Q619.7656,185.0234 619.5781,184.8984 Q619.1563,184.6484 619.1563,184.1641 Q619.1563,183.7891 619.4219,183.5547 Q619.6875,183.3203 620.2969,183.3203 L622.625,183.3203 Q623.25,183.3203 623.5078,183.5547 Q623.7656,183.7891 623.7656,184.1641 Q623.7656,184.5391 623.5078,184.7813 Q623.25,185.0234 622.625,185.0234 L622.3438,185.0234 L619.5,190.8516 L617.7188,190.8516 L614.875,185.0234 L614.6406,185.0234 Q614.0156,185.0234 613.7578,184.7813 Q613.5,184.5391 613.5,184.1641 Q613.5,183.7891 613.7578,183.5547 Q614.0156,183.3203 614.6406,183.3203 L616.9219,183.3203 Q617.5313,183.3203 617.7891,183.5547 Q618.0469,183.7891 618.0469,184.1641 Q618.0469,184.6484 617.6563,184.8984 Q617.4531,185.0234 616.7656,185.0234 L618.6094,188.7891 Z " fill="#000000"/><text fill="#000000" font-family="sans-serif" font-size="12" font-style="italic" lengthAdjust="spacing" textLength="82" x="630" y="181.957">&#171;ValueObject&#187;</text><text fill="#000000" font-family="sans-serif" font-size="14" lengthAdjust="spacing" textLength="43" x="649.5" y="199.127">District</text><line style="stroke:#181818;stroke-width:0.5;" x1="604" x2="712" y1="207.2031" y2="207.2031"/><line style="stroke:#181818;stroke-width:0.5;" x1="604" x2="712" y1="215.2031" y2="215.2031"/></g><!--class County--><g id="elem_County"><rect codeLine="11" fill="#F1F1F1" height="58.7031" id="County" rx="2.5" ry="2.5" style="stroke:#181818;stroke-width:0.5;" width="110" x="748" y="164.5"/><ellipse cx="763" cy="185.8516" fill="#A4C2E5" rx="11" ry="11" style="stroke:#181818;stroke-width:1.0;"/><path d="M763.6094,188.7891 L765.4531,185.0234 Q764.7656,185.0234 764.5781,184.8984 Q764.1563,184.6484 764.1563,184.1641 Q764.1563,183.7891 764.4219,183.5547 Q764.6875,183.3203 765.2969,183.3203 L767.625,183.3203 Q768.25,183.3203 768.5078,183.5547 Q768.7656,183.7891 768.7656,184.1641 Q768.7656,184.5391 768.5078,184.7813 Q768.25,185.0234 767.625,185.0234 L767.3438,185.0234 L764.5,190.8516 L762.7188,190.8516 L759.875,185.0234 L759.6406,185.0234 Q759.0156,185.0234 758.7578,184.7813 Q758.5,184.5391 758.5,184.1641 Q758.5,183.7891 758.7578,183.5547 Q759.0156,183.3203 759.6406,183.3203 L761.9219,183.3203 Q762.5313,183.3203 762.7891,183.5547 Q763.0469,183.7891 763.0469,184.1641 Q763.0469,184.6484 762.6563,184.8984 Q762.4531,185.0234 761.7656,185.0234 L763.6094,188.7891 Z " fill="#000000"/><text fill="#000000" font-family="sans-serif" font-size="12" font-style="italic" lengthAdjust="spacing" textLength="82" x="775" y="181.957">&#171;ValueObject&#187;</text><text fill="#000000" font-family="sans-serif" font-size="14" lengthAdjust="spacing" textLength="45" x="793.5" y="199.127">County</text><line style="stroke:#181818;stroke-width:0.5;" x1="749" x2="857" y1="207.2031" y2="207.2031"/><line style="stroke:#181818;stroke-width:0.5;" x1="749" x2="857" y1="215.2031" y2="215.2031"/></g><!--class Parish--><g id="elem_Parish"><rect codeLine="12" fill="#F1F1F1" height="58.7031" id="Parish" rx="2.5" ry="2.5" style="stroke:#181818;stroke-width:0.5;" width="110" x="893" y="164.5"/><ellipse cx="908" cy="185.8516" fill="#A4C2E5" rx="11" ry="11" style="stroke:#181818;stroke-width:1.0;"/><path d="M908.6094,188.7891 L910.4531,185.0234 Q909.7656,185.0234 909.5781,184.8984 Q909.1563,184.6484 909.1563,184.1641 Q909.1563,183.7891 909.4219,183.5547 Q909.6875,183.3203 910.2969,183.3203 L912.625,183.3203 Q913.25,183.3203 913.5078,183.5547 Q913.7656,183.7891 913.7656,184.1641 Q913.7656,184.5391 913.5078,184.7813 Q913.25,185.0234 912.625,185.0234 L912.3438,185.0234 L909.5,190.8516 L907.7188,190.8516 L904.875,185.0234 L904.6406,185.0234 Q904.0156,185.0234 903.7578,184.7813 Q903.5,184.5391 903.5,184.1641 Q903.5,183.7891 903.7578,183.5547 Q904.0156,183.3203 904.6406,183.3203 L906.9219,183.3203 Q907.5313,183.3203 907.7891,183.5547 Q908.0469,183.7891 908.0469,184.1641 Q908.0469,184.6484 907.6563,184.8984 Q907.4531,185.0234 906.7656,185.0234 L908.6094,188.7891 Z " fill="#000000"/><text fill="#000000" font-family="sans-serif" font-size="12" font-style="italic" lengthAdjust="spacing" textLength="82" x="920" y="181.957">&#171;ValueObject&#187;</text><text fill="#000000" font-family="sans-serif" font-size="14" lengthAdjust="spacing" textLength="40" x="941" y="199.127">Parish</text><line style="stroke:#181818;stroke-width:0.5;" x1="894" x2="1002" y1="207.2031" y2="207.2031"/><line style="stroke:#181818;stroke-width:0.5;" x1="894" x2="1002" y1="215.2031" y2="215.2031"/></g><!--link Property to Price--><g id="link_Property_Price"><path codeLine="15" d="M469.7,42 C359.67,42 78,42 78,42 C78,42 78,114.1 78,158.33 " fill="none" id="Property-to-Price" style="stroke:#181818;stroke-width:1.0;"/><polygon fill="#181818" points="78,164.33,82,155.33,78,159.33,74,155.33,78,164.33" style="stroke:#181818;stroke-width:1.0;"/><text fill="#000000" font-family="sans-serif" font-size="13" lengthAdjust="spacing" textLength="7" x="454.9487" y="35.2348">1</text><text fill="#000000" font-family="sans-serif" font-size="13" lengthAdjust="spacing" textLength="7" x="70.2344" y="153.6557">1</text></g><!--link Property to Latitude--><g id="link_Property_Latitude"><path codeLine="16" d="M469.9,60 C389.11,60 223,60 223,60 C223,60 223,118.78 223,158.26 " fill="none" id="Property-to-Latitude" style="stroke:#181818;stroke-width:1.0;"/><polygon fill="#181818" points="223,164.26,227,155.26,223,159.26,219,155.26,223,164.26" style="stroke:#181818;stroke-width:1.0;"/><text fill="#000000" font-family="sans-serif" font-size="13" lengthAdjust="spacing" textLength="7" x="454.8906" y="56.1678">1</text><text fill="#000000" font-family="sans-serif" font-size="13" lengthAdjust="spacing" textLength="7" x="215.2344" y="153.5704">1</text></g><!--link Property to Longitude--><g id="link_Property_Longitude"><path codeLine="17" d="M469.89,79 C427.15,79 368,79 368,79 C368,79 368,124.31 368,158.38 " fill="none" id="Property-to-Longitude" style="stroke:#181818;stroke-width:1.0;"/><polygon fill="#181818" points="368,164.38,372,155.38,368,159.38,364,155.38,368,164.38" style="stroke:#181818;stroke-width:1.0;"/><text fill="#000000" font-family="sans-serif" font-size="13" lengthAdjust="spacing" textLength="7" x="454.8789" y="78.4334">1</text><text fill="#000000" font-family="sans-serif" font-size="13" lengthAdjust="spacing" textLength="7" x="360.2344" y="153.7167">1</text></g><!--link Property to Id--><g id="link_Property_Id"><path codeLine="18" d="M513,97.33 C513,115.91 513,132.32 513,150.87 " fill="none" id="Property-to-Id" style="stroke:#181818;stroke-width:1.0;"/><polygon fill="#181818" points="513,156.87,517,147.87,513,151.87,509,147.87,513,156.87" style="stroke:#181818;stroke-width:1.0;"/><text fill="#000000" font-family="sans-serif" font-size="13" lengthAdjust="spacing" textLength="7" x="505.4203" y="118.3788">1</text><text fill="#000000" font-family="sans-serif" font-size="13" lengthAdjust="spacing" textLength="7" x="505.3547" y="146.0954">1</text></g><!--link Property to District--><g id="link_Property_District"><path codeLine="19" d="M556.11,79 C598.85,79 658,79 658,79 C658,79 658,124.31 658,158.38 " fill="none" id="Property-to-District" style="stroke:#181818;stroke-width:1.0;"/><polygon fill="#181818" points="658,164.38,662,155.38,658,159.38,654,155.38,658,164.38" style="stroke:#181818;stroke-width:1.0;"/><text fill="#000000" font-family="sans-serif" font-size="13" lengthAdjust="spacing" textLength="7" x="564.1211" y="78.4334">1</text><text fill="#000000" font-family="sans-serif" font-size="13" lengthAdjust="spacing" textLength="7" x="650.2344" y="153.7167">1</text></g><!--link Property to County--><g id="link_Property_County"><path codeLine="20" d="M556.1,60 C636.89,60 803,60 803,60 C803,60 803,118.78 803,158.26 " fill="none" id="Property-to-County" style="stroke:#181818;stroke-width:1.0;"/><polygon fill="#181818" points="803,164.26,807,155.26,803,159.26,799,155.26,803,164.26" style="stroke:#181818;stroke-width:1.0;"/><text fill="#000000" font-family="sans-serif" font-size="13" lengthAdjust="spacing" textLength="7" x="564.1094" y="56.1678">1</text><text fill="#000000" font-family="sans-serif" font-size="13" lengthAdjust="spacing" textLength="7" x="795.2344" y="153.5704">1</text></g><!--link Property to Parish--><g id="link_Property_Parish"><path codeLine="21" d="M556.3,42 C666.33,42 948,42 948,42 C948,42 948,114.1 948,158.33 " fill="none" id="Property-to-Parish" style="stroke:#181818;stroke-width:1.0;"/><polygon fill="#181818" points="948,164.33,952,155.33,948,159.33,944,155.33,948,164.33" style="stroke:#181818;stroke-width:1.0;"/><text fill="#000000" font-family="sans-serif" font-size="13" lengthAdjust="spacing" textLength="7" x="564.0513" y="35.2348">1</text><text fill="#000000" font-family="sans-serif" font-size="13" lengthAdjust="spacing" textLength="7" x="940.2344" y="153.6557">1</text></g><!--SRC=[ZP91Ru9048Nl-oiczG99DKBrK6986q2haPGezRx25hV5NRhiafYc_xqB5aqQZ9w0UTyCyrwc_AIim0Bl8QUCo4D1W0kvumW9aaZCifn0RpeA_C3_HacEon8YmGiYv04c4rXnBi5rwzU0IQgBhdl2Q49gmQZkUyyZpmx69cnmhiZhzaFFFfDBh3jLUYFCMNOxFK__C2wq5_AVgaN5w9SYvnQVbbAlBc-Qxt75ZabSHICiQBcxWluWT8htphg3VjzjdasOtLARtWMrZQjRdgVTzJQ4RlNe-iAcZKtqH5YglUIOoRTm2HKH9UKCh84zj4U31oFUAPYIBLXZi1wTqT0PZc4Mnb3B9Z9cqRAoeUHAw1jAcsMsIke99bhW2iDABq3tn87wouX34zP1MzINM571sPumYHQRy0Z12vVhWii6zdAgHTY4o2VlMELIzoGyfInpm2iiUsoZfRuNXJFzYqAYnh0uE135lm00]--></g></svg>